<?xml version="1.0" encoding="UTF-8"?>
<svg id="Layer_1" xmlns="http://www.w3.org/2000/svg" version="1.1" xmlns:xlink="http://www.w3.org/1999/xlink" viewBox="0 0 138.36 159.77">
  <!-- Generator: Adobe Illustrator 29.8.1, SVG Export Plug-In . SVG Version: 2.1.1 Build 2)  -->
  <defs>
    <style>
      .st0, .st1 {
        stroke: #ff004c;
        stroke-miterlimit: 10;
      }

      .st2 {
        isolation: isolate;
      }

      .st3 {
        fill: #ff004c;
      }

      .st1 {
        fill: url(#radial-gradient);
      }

      .st4 {
        fill: #000b30;
      }
    </style>
    <radialGradient id="radial-gradient" cx="68.97" cy="82.22" fx="68.97" fy="82.22" r="65.79" gradientTransform="translate(0 162) scale(1 -1)" gradientUnits="userSpaceOnUse">
      <stop offset="0" stop-color="#00000e"/>
      <stop offset="1" stop-color="#000"/>
    </radialGradient>
  </defs>
  <polygon class="st0" points="137.86 119.54 137.86 40.23 69.18 .58 .5 40.23 .5 119.54 69.18 159.19 137.86 119.54"/>
  <polygon class="st1" points="129.88 114.95 129.88 44.62 68.97 9.45 8.06 44.62 8.06 114.95 68.97 150.12 129.88 114.95"/>
  <g class="st2">
    <g class="st2">
      <path class="st3" d="M30.35,88.82c-2.64,0-4.81-.29-6.49-.88-1.68-.59-2.98-1.43-3.89-2.54-.91-1.1-1.54-2.45-1.9-4.03s-.54-3.37-.54-5.36.16-3.75.49-5.35c.33-1.6.94-2.97,1.83-4.12.89-1.15,2.18-2.03,3.86-2.65,1.68-.61,3.89-.92,6.64-.92,1.2,0,2.39.04,3.55.11,1.17.07,2.26.16,3.27.25,1.01.1,1.91.2,2.7.32l-.15,1.26c-.72-.12-1.62-.23-2.7-.34-1.08-.11-2.21-.2-3.37-.27-1.17-.07-2.27-.11-3.29-.11-2.4,0-4.33.28-5.79.83-1.46.55-2.55,1.35-3.27,2.39s-1.2,2.29-1.44,3.73c-.24,1.44-.36,3.06-.36,4.86s.13,3.41.39,4.84c.26,1.43.75,2.65,1.49,3.65.74,1.01,1.83,1.78,3.27,2.3,1.44.53,3.35.79,5.71.79,1.61,0,3.24-.08,4.89-.23s3.14-.32,4.48-.49l.15,1.22c-.86.12-1.8.23-2.83.34-1.03.11-2.11.2-3.24.27-1.13.07-2.28.11-3.45.11Z"/>
      <path class="st3" d="M42.81,88.5v-25.2h12.92c2.4,0,4.39.25,5.97.76,1.58.5,2.76,1.28,3.55,2.34.79,1.06,1.18,2.42,1.18,4.1,0,1.94-.57,3.57-1.72,4.88-1.15,1.31-3.06,2.14-5.74,2.5l8.13,10.62h-2.11l-8.03-10.44h-12.3v10.44h-1.85ZM44.66,76.84h11.07c2.2,0,3.93-.27,5.2-.81,1.27-.54,2.18-1.28,2.73-2.23.55-.95.82-2.05.82-3.29,0-2.09-.7-3.61-2.11-4.55-1.41-.95-3.62-1.42-6.64-1.42h-11.07v12.31Z"/>
      <path class="st3" d="M70.3,88.5v-25.2h21.06v1.22h-19.2v10.48h16.11v1.22h-16.11v11.05h19.2v1.22h-21.06Z"/>
      <path class="st3" d="M107.05,88.82c-3.71,0-6.56-.49-8.55-1.46s-3.36-2.41-4.12-4.32c-.75-1.91-1.13-4.25-1.13-7.04s.39-5.08,1.16-7.02c.77-1.94,2.15-3.43,4.14-4.46,1.99-1.03,4.82-1.55,8.5-1.55s6.5.51,8.49,1.53c1.99,1.02,3.37,2.5,4.14,4.45.77,1.94,1.16,4.3,1.16,7.06,0,2.9-.38,5.3-1.13,7.2s-2.13,3.31-4.12,4.23c-1.99.92-4.84,1.39-8.55,1.39ZM107.05,87.6c3.33,0,5.83-.41,7.52-1.24,1.68-.83,2.82-2.1,3.42-3.82s.9-3.89.9-6.53c0-2.5-.32-4.62-.95-6.37s-1.8-3.1-3.5-4.03c-1.7-.94-4.16-1.4-7.39-1.4s-5.74.46-7.44,1.39c-1.7.92-2.86,2.26-3.48,4.01s-.93,3.89-.93,6.41.3,4.64.9,6.37c.6,1.73,1.75,3.03,3.45,3.91,1.7.88,4.2,1.31,7.49,1.31Z"/>
    </g>
  </g>
  <g class="st2">
    <g class="st2">
      <path class="st4" d="M19.55,104.77v-7.24h3.51c.64,0,1.17.09,1.6.28.42.19.76.44,1.01.77.25.33.43.7.54,1.13.11.43.16.88.16,1.36s-.06.93-.16,1.37c-.11.44-.29.84-.54,1.2s-.59.63-1.01.84c-.43.21-.96.31-1.6.31h-3.51ZM20.24,104.29h2.83c.51,0,.94-.09,1.27-.28.33-.19.6-.44.8-.75.2-.31.34-.66.42-1.04.08-.38.12-.77.12-1.16s-.04-.77-.12-1.13c-.08-.37-.22-.7-.42-.99-.2-.29-.46-.52-.8-.69-.33-.17-.76-.25-1.27-.25h-2.83v6.29Z"/>
      <path class="st4" d="M27.3,104.77v-5.19h.66v.78c.17-.1.4-.21.68-.33.28-.12.59-.23.93-.33.34-.1.69-.18,1.04-.22v.51c-.32.05-.65.12-.99.22-.34.1-.65.2-.94.31-.29.11-.53.21-.72.29v3.97h-.66Z"/>
      <path class="st4" d="M33.25,104.86c-.68,0-1.21-.1-1.59-.31-.38-.21-.65-.51-.81-.91-.16-.4-.23-.89-.23-1.45,0-.68.12-1.21.37-1.61.25-.39.58-.67.99-.84.42-.17.9-.25,1.45-.25.86,0,1.52.19,1.97.57.45.38.68,1.02.68,1.9v.43h-4.77c0,.66.16,1.16.44,1.51.28.35.8.52,1.55.52.25,0,.52,0,.82-.02s.6-.02.91-.04.56-.03.78-.04l.03.43c-.22.01-.48.03-.79.05-.31.02-.62.04-.93.05-.32.01-.6.02-.86.02ZM31.3,101.94h4.09c0-.75-.16-1.27-.47-1.57-.32-.3-.81-.45-1.49-.45-.44,0-.82.07-1.13.2-.32.13-.56.35-.73.64-.17.29-.26.69-.26,1.18Z"/>
      <path class="st4" d="M38.27,104.86c-.59,0-1.04-.13-1.36-.38-.32-.26-.49-.64-.49-1.15,0-.31.07-.57.21-.78.14-.21.35-.37.64-.49s.67-.2,1.12-.23l2.44-.2v-.51c0-.42-.12-.72-.36-.9-.24-.18-.59-.28-1.07-.28-.24,0-.51.01-.83.03s-.63.04-.94.07c-.31.02-.59.05-.82.07l-.04-.43c.22-.03.48-.06.8-.09.31-.03.63-.06.96-.08.33-.02.63-.03.91-.03.48,0,.88.06,1.18.18.3.12.53.3.67.54.15.24.22.54.22.91v2.88c.02.15.12.26.32.33.19.07.4.11.63.12l-.03.43c-.11,0-.22,0-.33,0-.11,0-.21-.02-.31-.04-.1-.02-.19-.04-.28-.07-.11-.03-.21-.08-.31-.13-.1-.05-.19-.11-.27-.18-.19.06-.43.12-.73.19-.29.07-.61.13-.95.17s-.67.07-.99.07ZM38.33,104.43c.3,0,.61-.02.92-.06.31-.04.61-.09.89-.16.28-.06.52-.12.7-.18v-1.98l-2.37.18c-.49.04-.84.14-1.04.32s-.3.44-.3.77c0,.35.1.63.31.82.21.19.51.29.9.29Z"/>
      <path class="st4" d="M42.71,104.77v-5.19h.66v.39c.16-.07.35-.14.58-.22.23-.08.49-.14.77-.19.28-.05.55-.08.82-.08.49,0,.88.04,1.15.12.27.08.49.23.66.43.18-.08.41-.17.67-.25.27-.09.56-.16.88-.21.32-.05.64-.08.95-.08.47,0,.85.04,1.15.12.3.08.53.22.69.42s.28.46.34.79c.06.33.1.74.1,1.23v2.72h-.66v-2.69c0-.55-.04-.98-.12-1.29-.08-.31-.24-.53-.47-.66-.23-.13-.59-.19-1.08-.19-.29,0-.58.02-.86.07-.28.05-.54.11-.77.18-.23.07-.42.14-.57.21.09.19.15.42.18.71.03.28.04.6.04.96v2.7h-.66v-2.68c0-.55-.04-.99-.12-1.3-.08-.31-.24-.53-.47-.66-.24-.13-.59-.19-1.07-.19-.28,0-.56.02-.83.07s-.52.11-.74.18-.4.14-.54.21v4.36h-.66Z"/>
      <path class="st4" d="M53.14,104.77v-.96h.75v.96h-.75Z"/>
      <path class="st4" d="M59.25,104.77v-6.76h-3.1v-.48h6.86v.48h-3.07v6.76h-.69Z"/>
      <path class="st4" d="M63.29,104.77v-7.54h.66v2.65c.17-.06.39-.12.64-.18.26-.06.53-.11.82-.15.29-.04.56-.06.83-.06.48,0,.86.04,1.15.13.29.09.52.23.69.43.17.2.28.46.34.79.06.33.09.74.09,1.22v2.72h-.67v-2.69c0-.55-.04-.98-.12-1.29-.08-.31-.23-.53-.47-.66-.23-.13-.59-.19-1.08-.19-.27,0-.55.02-.84.06-.28.04-.55.09-.79.14-.24.06-.45.12-.61.17v4.46h-.66Z"/>
      <path class="st4" d="M69.6,98.18v-.69h.66v.69h-.66ZM69.6,104.77v-5.19h.66v5.19h-.66Z"/>
      <path class="st4" d="M71.41,104.77v-5.19h.66v.39c.17-.07.38-.14.63-.22s.53-.14.82-.19c.29-.05.58-.08.85-.08.47,0,.85.04,1.15.13.3.09.53.23.69.43.17.2.28.46.34.79.06.33.1.74.1,1.22v2.72h-.67v-2.69c0-.55-.04-.98-.12-1.29-.08-.31-.23-.53-.47-.66-.23-.13-.59-.19-1.08-.19-.27,0-.55.02-.84.07-.29.05-.55.11-.79.18s-.45.14-.61.21v4.36h-.66Z"/>
      <path class="st4" d="M77.71,104.77v-7.54h.66v4.52h1.23s2.22-2.17,2.22-2.17h.78l-2.43,2.37,2.54,2.83h-.78l-2.32-2.58h-1.25v2.58h-.66Z"/>
      <path class="st4" d="M83.04,104.77v-.96h.75v.96h-.75Z"/>
      <path class="st4" d="M90.19,104.86c-.71,0-1.29-.08-1.74-.25-.45-.17-.8-.41-1.04-.72-.25-.32-.42-.7-.51-1.16-.1-.46-.14-.98-.14-1.56s.04-1.1.14-1.56.26-.85.5-1.18c.24-.33.59-.57,1.04-.75.45-.17,1.04-.26,1.77-.26.32,0,.64.01.95.04.32.02.61.05.88.08.28.03.52.06.73.09l-.04.48c-.2-.03-.45-.07-.73-.1-.29-.03-.59-.06-.89-.08-.31-.02-.59-.03-.86-.03-.6,0-1.09.07-1.46.22-.37.14-.65.36-.84.64s-.31.63-.38,1.03c-.06.4-.1.86-.1,1.38s.03.97.1,1.37c.07.4.2.73.38,1.01s.46.48.83.62c.37.14.85.21,1.45.21.41,0,.84-.02,1.29-.06s.85-.09,1.19-.14l.04.47c-.23.03-.48.07-.76.1-.28.03-.57.06-.88.08-.31.02-.62.03-.92.03Z"/>
      <path class="st4" d="M93.44,104.77v-5.19h.66v.78c.17-.1.4-.21.68-.33.28-.12.59-.23.93-.33s.69-.18,1.04-.22v.51c-.32.05-.65.12-.99.22s-.65.2-.94.31c-.29.11-.53.21-.72.29v3.97h-.66Z"/>
      <path class="st4" d="M99.4,104.86c-.68,0-1.21-.1-1.59-.31-.38-.21-.65-.51-.81-.91-.15-.4-.23-.89-.23-1.45,0-.68.12-1.21.37-1.61.25-.39.58-.67,1-.84.42-.17.9-.25,1.45-.25.86,0,1.52.19,1.97.57.45.38.68,1.02.68,1.9v.43h-4.77c0,.66.16,1.16.44,1.51.28.35.8.52,1.55.52.25,0,.52,0,.82-.02s.6-.02.91-.04.56-.03.78-.04l.03.43c-.22.01-.48.03-.79.05-.31.02-.62.04-.93.05-.32.01-.6.02-.86.02ZM97.45,101.94h4.09c0-.75-.16-1.27-.47-1.57-.31-.3-.81-.45-1.49-.45-.44,0-.82.07-1.13.2-.31.13-.56.35-.73.64-.17.29-.26.69-.26,1.18Z"/>
      <path class="st4" d="M104.42,104.86c-.59,0-1.04-.13-1.37-.38-.32-.26-.49-.64-.49-1.15,0-.31.07-.57.21-.78.14-.21.35-.37.64-.49.29-.12.67-.2,1.12-.23l2.44-.2v-.51c0-.42-.12-.72-.36-.9-.24-.18-.59-.28-1.07-.28-.24,0-.51.01-.83.03s-.63.04-.94.07c-.31.02-.59.05-.82.07l-.04-.43c.22-.03.49-.06.8-.09.31-.03.63-.06.96-.08.33-.02.63-.03.91-.03.48,0,.88.06,1.18.18.3.12.53.3.67.54.15.24.22.54.22.91v2.88c.02.15.12.26.32.33.19.07.4.11.63.12l-.03.43c-.11,0-.22,0-.33,0-.11,0-.21-.02-.31-.04s-.19-.04-.28-.07c-.11-.03-.21-.08-.31-.13-.1-.05-.19-.11-.27-.18-.19.06-.43.12-.73.19-.29.07-.61.13-.95.17s-.67.07-.99.07ZM104.47,104.43c.3,0,.61-.02.92-.06.31-.04.61-.09.89-.16s.52-.12.7-.18v-1.98l-2.37.18c-.49.04-.84.14-1.04.32s-.3.44-.3.77c0,.35.1.63.31.82.21.19.51.29.9.29Z"/>
      <path class="st4" d="M111.03,104.87c-.43,0-.78-.05-1.04-.16-.26-.1-.45-.29-.57-.56s-.18-.65-.18-1.15v-2.99h-1.06v-.45h1.06v-1.66h.66v1.66h2.39v.45h-2.39v2.64c0,.47.03.83.08,1.09.05.25.16.43.33.53.17.1.42.15.76.15.09,0,.21,0,.37-.01.16,0,.32-.02.49-.03s.32-.02.45-.03l.05.44c-.13.01-.28.03-.45.04s-.34.03-.51.04c-.17.01-.31.02-.43.02Z"/>
      <path class="st4" d="M114.96,104.86c-.68,0-1.21-.1-1.59-.31-.38-.21-.65-.51-.81-.91-.16-.4-.23-.89-.23-1.45,0-.68.12-1.21.37-1.61.25-.39.58-.67.99-.84s.9-.25,1.45-.25c.86,0,1.52.19,1.97.57s.68,1.02.68,1.9v.43h-4.77c0,.66.16,1.16.44,1.51s.8.52,1.55.52c.25,0,.52,0,.82-.02s.6-.02.91-.04.56-.03.78-.04l.03.43c-.22.01-.48.03-.79.05-.31.02-.62.04-.93.05-.32.01-.6.02-.86.02ZM113.01,101.94h4.09c0-.75-.16-1.27-.47-1.57-.32-.3-.81-.45-1.49-.45-.44,0-.82.07-1.13.2-.32.13-.56.35-.73.64s-.26.69-.26,1.18Z"/>
      <path class="st4" d="M118.5,104.77v-.96h.75v.96h-.75Z"/>
    </g>
  </g>
</svg>